<svg xmlns="http://www.w3.org/2000/svg" preserveAspectRatio="xMidYMid meet" version="1.0" viewBox="0 0 3500 1750"><g fill="#000" stroke="none"><path d="M0 875V1750h3500V0H0v875zm2053-457 27 28-97 97c-60 60-105 97-118 97-12 0-47-26-84-64l-64-64 29-26c16-14 31-25 34-25 3 0 22 22 43 49 21 28 42 50 45 50 4 0 38-38 76-85 39-47 73-85 76-85 3 0 18 13 33 28zm-381 175c3 106 4 112 23 109 11-2 58-4 105-5 95-2 130 11 173 63 36 42 38 64 35 310l-3 215h-190L1810 1080c-3-113-9-211-13-218-9-13-94-17-114-4-9 6-13 65-15 217l-3 210h-190l-3-402L1470 480l22-5c41-9 153-10 165-2 8 6 13 47 15 120zm-397 8c56 16 92 44 118 92 21 40 22 54 22 262v219l-60 19c-85 27-281 29-347 4-108-42-149-172-85-269 36-54 104-81 206-82l86-1 3-31c5-49-24-67-107-66-38 1-80 6-94 11-31 12-40 3-56-54-16-59-14-65 26-81 77-33 214-43 288-23zm1168 0c21 5 53 24 72 41 56 49 66 100 63 334l-3 199-55 19c-78 27-285 29-352 3-56-22-105-73-114-122-10-54 4-121 33-155 45-53 96-73 198-74l90-1 3-31c5-50-26-70-107-66-153 8-134 14-150-50-8-32-12-61-8-65 4-4 38-15 75-24 76-20 198-24 255-8"/><path d="M1128 961c-32 12-51 59-38 94 10 27 40 38 91 33 34-3 34-4 37-58 4-74-21-94-90-69zm1162 2c-14 7-31 25-38 40-27 56 27 104 98 87 23-5 25-11 28-63 3-54 1-58-23-67-33-13-35-12-65 3"/></g></svg>
