<svg xmlns="http://www.w3.org/2000/svg" preserveAspectRatio="xMidYMid meet" version="1.0" viewBox="0 0 3500 1750"><path d="M0 875V1750h3500V0H0v875zM1170 450c0 71-79 160-142 160-26 0-27-2-21-33 12-64 46-107 108-140 44-24 55-21 55 13zm438 142 3 68H1720v90h-110v184c0 209 2 216 71 216h40l-3 47-3 48-73-1c-56 0-78-5-100-21-44-32-51-70-51-281L1490 750h-80v-90h80V519l58 3 57 3 3 67zm-657 49 62 22 61-22c34-12 72-21 86-21 45 0 101 21 133 50l31 28-36 40c-79 88-71 188 20 269l37 33-32 62c-38 73-94 135-131 145-13 3-48-2-77-11-66-20-105-20-164 1-30 10-57 14-76 9-66-17-160-164-185-291-31-152 27-285 141-320 59-18 60-18 130 6zm993 161c24 79 57 182 71 230 15 48 31 85 36 82 5-3 9-10 9-16 0-5 30-106 67-224l66-214h59c32 0 58 2 58 4s-45 131-100 287-100 285-100 286c0 2-29 3-64 3h-63l-98-278c-54-152-100-283-102-290-4-9 11-12 55-12h61l45 142zM2640 780v120h230v110h-230v230h-100v-229l-112-3-113-3-3-53-3-52H2540V660h100v120" fill="#000"/></svg>
