<svg xmlns="http://www.w3.org/2000/svg" preserveAspectRatio="xMidYMid meet" version="1.0" viewBox="0 0 3500 1750"><g fill="#000" stroke="none"><path d="M0 875V1750h3500V0H0v875zm2248-509c100 21 173 51 264 109C2581 520 2710 641 2710 661c0 23-30 4-85-52-149-151-328-230-523-230-104 0-162 11-260 46-41 15-76 25-78 22-2-2 26-18 63-36 119-59 275-75 421-45zM801 515c281 49 519 237 519 409 0 46-5 61-33 98-58 78-196 125-317 108-48-7-57-5-71 12-22 28-52 19-65-20-7-24-24-41-55-58-81-46-146-124-133-158 9-23 64-54 125-69l54-14 11-64c7-35 12-67 13-72 1-4 6-7 12-7 14 0 39 63 39 98 0 28 2 29 76 40 91 14 142 37 157 69 14 31-5 71-38 79-31 8-58-11-32-22 48-18 1-43-116-59l-48-7 3 93 3 94 78 3c145 5 246-46 262-131 10-53-31-132-101-196-62-57-205-132-299-157-77-20-260-31-269-15-4 6-2 11 3 11 6 0 11 4 11 10 0 5-13 10-30 10-25 0-30-4-30-25 0-32 32-52 100-64 78-13 79-13 171 4zm705 66c44 27 57 51 45 82-21 53-127 114-177 101-12-3-25-1-28 5-13 20-25 12-41-25-24-59-20-96 18-131 57-56 125-68 183-32zm1222 152c6 7 14 43 18 80l7 66 76 3c74 3 76 4 76 28s-3 25-71 28l-71 3-9 72c-8 67-11 72-33 72-24 0-24-2-22-73l2-72h-74c-57 0-76-4-81-15-13-35 4-45 80-45 41 0 74-3 74-8 0-4-5-35-10-70-6-35-8-67-5-72 9-14 31-12 43 3zm-804 69c45 60 59 158 32 223-27 63-78 41-125-53-12-23-26-40-31-37-6 4-10 32-10 63 0 69-12 92-37 76-23-14-28-97-10-173 22-96 56-91 120 16 51 86 58 73 27-52-11-44-20-83-20-88 0-19 31-4 54 25zm-217 19c27 23-6 37-107 44-55 4-102 11-105 15-5 8 11 11 119 25 142 19 121 175-23 175-48 0-89-14-118-42-28-26-29-49-3-73 16-14 30-17 74-11 62 7 86 14 86 27 0 16-54 22-98 10-49-13-69-7-51 15 16 19 112 18 149-1 63-33 22-60-105-69-48-4-74-11-82-22-26-35 24-90 94-105 48-10 152-3 170 12zm613-6c0 8-14 42-32 75-31 60-32 95-1 50 37-53 80-94 112-108 34-14 36-13 58 13 14 15 23 39 23 58-1 79-77 171-150 183-39 6-40 8-60 73-12 36-24 85-27 109-8 55-20 62-51 27-21-25-24-36-19-81 3-28 17-80 30-114 20-48 23-68 16-87-18-47 6-121 57-182 28-34 44-40 44-16zm-905 108c10 122 5 161-22 165-36 5-46-29-41-144 5-111 20-152 44-119 7 9 15 53 19 98zM2210 830c15 29 5 40-38 40-51 0-82 10-82 26 0 8 15 14 38 16 29 2 37 7 37 23 0 17-8 20-52 23-29 2-53 7-53 12 0 4-3 16-6 25-6 14 0 16 55 9 51-5 62-4 67 10 8 22-13 45-61 67-57 27-90 24-115-8-17-22-20-35-14-63 4-19 7-46 7-60-1-13 7-30 18-38 25-17 24-34-2-50-47-30-4-49 113-51 68-1 79 1 88 19"/><path d="M724 899c-64 16-70 36-21 73 30 24 110 68 122 68 3 0 5-34 5-75V890l-37 1c-21 1-52 4-69 8zm617-253c-20 26-27 44-16 44 8 0 54-53 55-63 0-15-19-6-39 19zm81 18c-26 25-44 48-40 52 13 12 95-17 119-42 12-13 19-30 16-38-11-28-47-17-95 28zM2380 933c-36 49-49 77-35 77 20 0 67-35 80-60 17-33 20-70 5-70-5 0-27 24-50 53"/></g></svg>
