<svg xmlns="http://www.w3.org/2000/svg" preserveAspectRatio="xMidYMid meet" version="1.0" viewBox="0 0 3500 1750"><path d="M0 875V1750h3500V0H0v875zm1253-480c98 33 257 164 243 200-5 15-13 11-49-22-63-58-134-104-185-119-133-40-252 14-252 115 0 66-62 61 736 61H2470v-33c-1-41-30-105-63-136-39-35-101-35-133 2-29 34-30 61-5 110 10 20 18 37 16 37-1 0-16-5-34-11-21-7-38-24-51-50-30-58-26-95 14-135 29-29 41-34 80-34 110 0 202 82 236 207 10 41 12 43 50 43 34 0 42 4 55 30l16 30H2540v265c0 158-4 265-9 265s-21-4-36-10l-26-10 1-252 1-253-90-3-91-3V870h-87c-113 1-167 22-189 76-13 32-14 42-2 73 25 66 109 99 183 71 22-8 24-13 15-29-39-75 55-137 115-76 32 31 33 80 4 111l-22 23 28 33c62 73 65 136 11 187-25 24-34 22-80-13-18-14-17-16 13-46 35-36 39-68 14-111-14-23-22-27-38-21-11 4-55 7-97 7-69 0-81-3-119-30-67-47-101-103-102-164l-1-51h-143l-6 50c-8 62-12 70-41 70-28 0-92-67-102-105-16-63 60-90 217-80 97 6 109 5 148-16 31-16 69-24 129-28l86-6v-100l-351-3-352-2-3 76-3 77-95 2c-150 4-210 42-180 115 13 30 24 38 34 21 3-5 26-18 51-30 60-28 136-28 183 1 42 26 76 96 67 137-6 30-44 70-84 91-20 10-26 8-52-16l-29-27 51-31c69-43 81-98 24-108-63-12-157 29-189 83-55 93 36 181 216 211 40 6 75 13 76 14 8 5-33 64-44 64-17 0-135-40-169-57-69-36-116-78-140-127-27-55-31-87-14-134 10-28 8-35-22-72-54-66-43-146 26-182 10-6 67-14 125-17l105-6v-80l-207-3L1040 690v265c0 158-4 265-9 265s-21-4-35-10l-26-10V690h-39c-30 0-42-5-55-25-9-13-16-27-16-30 0-3 25-5 55-5s55-2 55-4-7-20-16-41c-23-57-11-111 37-157 59-57 156-69 262-33" fill="#000"/></svg>
