<svg xmlns="http://www.w3.org/2000/svg" preserveAspectRatio="xMidYMid meet" version="1.0" viewBox="0 0 3500 1750"><g fill="#000" stroke="none"><path d="M0 875V1750h3500V0H0v875zm926-350c68 33 152 113 183 173 31 61 53 167 46 221-18 134-47 193-130 269-106 97-241 133-372 98-166-44-274-161-304-329-35-189 79-383 264-449 41-15 73-18 153-15 87 3 110 8 160 32zM1590 766c11 12 10 18-3 32-16 15-18 15-34 0-13-14-14-20-3-32 7-9 16-16 20-16 4 0 13 7 20 16zm600 0c11 12 11 18-2 30-18 18-48 8-48-15 0-33 28-42 50-15zm-150 10c38 15 60 39 60 63 0 19-31 12-62-14-36-30-57-31-91-5-30 24-42 79-27 126 20 58 83 74 122 29 12-14 32-25 46-25h24l-19 32c-11 18-30 39-44 46-37 19-115 10-144-18-67-63-50-195 29-231 50-23 56-23 106-3zm-540 88c0 101-12 151-40 166-50 27-130-7-130-56 0-31 32-33 45-2 12 27 40 35 60 18 11-10 15-38 15-116V770h25c25 0 25 0 25 94zm92 66c3 98 3 100-19 100-22 0-23-3-23-100 0-92 2-100 19-100 18 0 20 9 23 100zm199-87c25 19 39 53 39 96 0 54-32 90-86 98-33 4-45 1-72-22-29-24-32-32-32-81 0-72 28-104 92-104 24 0 50 6 59 13zM2190 930c0 97-1 100-22 100-22 0-23-2-21-97 1-54 2-99 3-101 0-1 9-2 20-2 19 0 20 7 20 100zm90-88c0 9 3 9 12 0 7-7 28-12 48-12 56 0 72 25 78 120l5 80h-27c-26 0-26-1-26-69 0-50-4-74-16-85-40-41-74 1-74 91 0 56-2 63-20 63-19 0-20-7-20-100s1-100 20-100c11 0 20 5 20 12zm330 6c13 11 23 33 27 60l6 42h-72c-79 0-93 15-45 47 24 16 28 16 59-1 45-24 62-17 37 14-17 21-29 25-71 25-71 0-95-25-95-101 0-49 3-59 27-80 34-29 95-32 127-6zm213-7c13 8 22 8 30 0 17-17 83-13 98 5 7 9 15 51 17 100l5 84h-26c-26 0-26-2-29-76-2-59-7-79-20-87-32-21-48 8-48 89 0 72-1 74-25 74-23 0-24-3-27-76-2-62-7-79-21-88-15-9-22-7-38 13-14 17-19 39-19 87 0 57-2 64-20 64-19 0-20-7-20-99v-98l62-1c34-1 70 4 81 9zm339 6c15 13 18 31 18 100v83h-27c-16 0-45 3-65 6-31 5-41 2-62-20-31-30-32-36-5-69 15-20 33-28 70-33 54-7 53-7 39-35-13-23-58-26-66-4-7 17-54 21-54 5 0-6 9-19 20-30 26-26 105-28 132-3"/><path d="M942 663c-5 6-14 25-19 42-7 22-17 31-42 36-35 7-34 12-14-60 5-20 3-23-11-18-10 4-28 7-41 7-18 0-26 8-35 37-15 46-17 49-54 57-24 6-27 4-22-9 3-9 9-28 12-41 6-22 3-24-29-24-39 0-54 14-63 58C620 770 612 780 600 780c-10 0-26 3-35 7-15 5-16 2-9-18 15-48 11-64-16-61-38 5-49 26-39 75 4 23 8 104 9 179 0 130 1 138 22 152 19 13 58 16 223 16 262 0 245 11 245-166 0-74-1-135-2-136-2-1-84-4-183-7l-180-6L770 797c234-32 215-25 218-79 2-38-1-49-16-57-15-8-23-7-30 2zm-167 280 39 34-35 31c-51 47-59 42-59-33 0-36 4-65 8-65 5 0 26 15 47 33zM1700 880c-43 43-10 140 43 124 31-9 37-16 43-55 4-26 0-41-16-62-26-32-43-34-70-7zm817-2c-28 31-21 42 27 42 52 0 61-9 40-38-19-27-45-28-67-4zm547 76c-15 12-17 18-8 33 17 28 50 28 69-1 9-14 14-30 10-36-9-15-48-12-71 4"/></g></svg>
