<svg xmlns="http://www.w3.org/2000/svg" preserveAspectRatio="xMidYMid meet" version="1.0" viewBox="0 0 3500 1750"><g fill="#000" stroke="none"><path d="M0 875V1750h3500V0H0v875zM1257 450c32 61 32 138-2 174-28 30-64 46-105 46-25 0-28 4-32 41-2 22-2 42 1 45 2 2 40 4 83 4h78v31c0 31 0 31-50 27-28-1-50 0-50 4 0 5 4 8 9 8s19 21 31 46c25 50 23 98-5 141-59 89-233 85-280-7-23-45-19-111 10-154l24-36h-43c-51 0-55-3-48-35 4-24 7-25 87-25 92 0 109-9 103-57l-3-28-98-3c-84-2-98-5-93-18 3-9 6-27 6-40V590h155c154 0 156 0 182-26 30-30 27-70-8-118-17-23-19-30-8-37 21-13 31-6 56 41zm591-22c28 38 44 106 36 147-8 42-51 82-99 91l-35 6 28 22c71 55 105 126 105 221 1 112-41 168-128 168-57 0-85-19-147-105-57-78-99-105-142-88-33 12-49 45-42 85 7 38 41 85 61 85 21 0 27 17 15 40-14 26-42 25-67-3-31-34-42-60-49-120-8-68 8-118 47-152 56-47 104-27 178 74 61 85 87 103 137 99 106-9 105-188-2-276-50-41-101-52-245-52-121 0-121 0-115-23 3-12 6-30 6-40 0-16 16-17 205-17 192 0 206-1 225-20 26-26 25-65 0-113-31-57-8-80 28-29zm728 27c46 94 21 178-61 205l-33 11 29 29c16 15 29 36 29 45 0 9 11 36 25 59 50 86 42 190-19 244-69 60-165 47-215-31l-24-37-23 38c-28 47-64 67-120 67-83 0-137-70-136-178 0-92 34-162 104-214l32-23H2030v-80h238c271 0 282-3 282-68 0-20-9-52-20-70-11-18-18-37-15-43 14-22 35-5 61 46zm-597 581c62 44 79 165 35 253-25 50-26 53-8 67 11 7 35 13 54 11 33-2 35 0 35 28 0 27-3 30-37 33-28 2-43-3-70-27-33-29-35-30-74-16-74 27-147 13-193-36-31-34-29-102 5-136 22-22 32-25 75-21 44 5 57 12 99 53 26 26 52 45 58 41 18-11 42-74 42-110 0-29-9-46-41-81-35-37-39-47-29-60 16-19 20-19 49 1"/><path d="M1007 840c-34 27-44 78-23 118 19 36 33 42 100 42s96-26 96-87c0-34-6-46-31-67-39-33-104-36-142-6zm1218-156c-60 22-120 91-133 152-21 102 13 164 91 164 48 0 77-22 96-73 14-36 35-34 51 3 19 47 55 70 109 70 56 0 87-20 99-63 15-55-4-128-22-82-3 8-21 22-40 31-45 22-98 12-126-23-27-34-25-69 5-98 24-25 43-30 104-26 39 3 39-12-2-43-35-26-173-33-232-12"/><path d="M2390 785c-38 46 47 78 91 34 21-21 21-23 4-36-25-17-79-17-95 2zm-643 452c-15 14-6 53 15 67 24 17 114 22 136 7 10-6 2-17-28-44-31-29-48-37-78-37-21 0-42 3-45 7"/></g></svg>
