<svg xmlns="http://www.w3.org/2000/svg" preserveAspectRatio="xMidYMid meet" version="1.0" viewBox="0 0 3500 1750"><g fill="#000" stroke="none"><path d="M0 875V1750h3500V0H0v875zM669 710C753 734 790 813 790 967v93H437l6-108c3-59 11-123 18-142 30-88 112-128 208-100zm404 4c67 28 107 93 107 172V930H920v100h370V710h60v350H850V957c0-120 9-160 47-200 51-54 114-70 176-43zm533 20 33 33 22-24c13-13 40-29 61-35 32-9 45-9 73 5 98 47 100 214 4 290l-34 27h36c46 0 99-35 121-80 27-53 23-135-7-189-20-34-23-46-13-52 31-20 78 73 78 155 0 89-44 158-120 189-46 19-228 20-295 2-57-16-106-60-129-117-62-148 69-305 170-204zm622-14c45 28 72 89 72 168 0 107-54 182-133 182-32 0-46-7-78-39-25-25-39-48-39-65 0-35 15-33 30 4 32 76 117 63 149-23 15-40 14-111-3-152-34-80-130-70-151 17-4 16-11 28-16 28-15 0-10-50 7-79 35-60 103-77 162-41zm451 9c46 24 76 71 67 107-4 13-18 34-32 48-25 23-26 24-6 30 31 10 47 59 31 97-21 51-73 69-206 69-101 0-113 2-123 19-8 16-6 23 12 35 18 13 53 16 175 16H2750v50h-169c-146 0-172-2-189-18-34-28-33-82 3-117 22-23 31-25 129-25 95 0 107-2 132-23 37-32 28-73-19-85-37-10-53-52-19-52 10 0 29-11 41-24 67-71-64-148-172-102-34 14-87 69-87 89 0 7 6 4 14-5 17-23 56-36 85-29 77 20 87 157 14 190-45 21-79 14-112-24-30-34-35-56-31-120 9-124 177-193 309-126zm357 114c61 67 50 154-25 204-113 76-249-55-186-178 41-78 151-92 211-26"/><path d="M638 753c29 30 38 84 23 130-7 20-37 61-67 92L540 1030h200v-70c0-138-31-210-95-225l-30-7 23 25"/><path d="M511 776c-27 34-33 70-29 172l3 83 44-43c53-52 80-108 81-165 0-71-58-99-99-47zM973 760c-40 24-53 48-53 99v40l115 3 115 3v-38c0-101-94-158-177-107zm513 9c-28 31-38 85-25 133 22 83 79 127 166 128h52l-25-25c-32-32-63-101-64-141 0-90-60-144-104-95zm185 7c-42 53-35 144 15 204 33 38 45 38 82-4 70-81 43-226-43-226-24 0-39 7-54 26zm759 83c-25 47-5 111 35 111 28 0 45-26 45-69 0-53-57-83-80-42zm443-1c-35 27-45 67-29 107 8 18 23 38 34 44 80 43 168-39 128-118-27-52-89-68-133-33"/></g></svg>
