<svg xmlns="http://www.w3.org/2000/svg" preserveAspectRatio="xMidYMid meet" version="1.0" viewBox="0 0 3500 1750"><g fill="#000" stroke="none"><path d="M0 875V1750h3500V0H0v875zm592-314c3 9 9 9 25 0 30-16 75-14 101 5 20 14 24 14 44 0 35-25 104-21 133 8 30 30 37 68 33 181l-3 90-32 3-33 3v-90c0-130-23-171-76-136-23 15-24 21-24 120V850h-70V746c0-97-2-106-22-120-29-20-34-20-58 4-17 17-20 33-20 120v100h-70V550h34c19 0 36 5 38 11zm581 17c20 20 22 34 25 147l4 125h-35c-20 0-37-6-40-13-4-10-7-10-18 0-7 7-29 13-50 13-67 0-114-69-89-129 14-35 29-43 99-50 58-6 71-19 46-45-19-19-66-21-83-4-10 10-17 7-35-10l-22-23 25-21c35-28 140-22 173 10zm149-17c3 9 9 9 25 0 39-20 82-13 114 18 29 29 29 30 29 150V850h-70V747c0-91-2-106-20-122-16-15-24-16-45-7-23 11-24 15-27 119l-3 108h-70l-3-148-3-147h35c19 0 36 5 38 11zm387 4c43 22 66 91 56 168-6 41-15 59-42 84-73 69-182 26-197-78-11-76 12-152 53-174 34-19 95-19 130 0zm163-4c3 9 9 9 25 0 27-14 68-14 95 0 20 11 20 11-7 39-22 23-32 27-46 20-22-12-46-4-59 21-6 10-10 61-10 113V850h-70V550h34c19 0 36 5 38 11zm337 3c41 22 51 55 51 176v110h-34c-19 0-36-6-39-13-4-10-7-10-18 0-20 19-77 15-109-7-34-24-46-70-30-110 14-34 29-42 99-49 58-6 71-19 46-45-19-19-66-21-83-4-9 9-16 7-32-7-11-10-20-23-20-30 0-32 118-47 169-21zm163-3c3 9 9 9 25 0 30-16 75-14 101 5 20 14 24 14 44 0 35-25 100-20 131 8 32 30 39 66 35 181l-3 90h-70l-3-108c-3-104-4-108-27-119-21-9-29-8-45 7-18 16-20 31-20 122V850h-70V746c0-97-2-106-22-120-29-20-34-20-58 4-17 17-20 33-20 120v100h-70V550h34c19 0 36 5 38 11zm557 3c41 22 51 55 51 176v110h-34c-19 0-36-6-39-13-4-10-7-10-18 0-7 7-30 13-50 13-79 0-129-94-79-148 22-23 43-30 104-34 44-3 55-18 31-42-19-19-66-21-83-4-10 10-17 7-35-10l-22-23 24-20c28-23 109-26 150-5zM2230 1100c0 82 3 150 8 150 4 0 45-65 92-145 47-80 87-145 90-145 5 0 180 295 180 304 0 9-353 7-366-2-5-4-27-37-48-75-20-37-40-67-45-67-4 0-25 31-47 70-21 38-42 70-46 70-4 0-24-31-45-70-21-38-41-70-45-70-3 0-18 21-34 47-57 99-54 102-54-65V950h360v150zm690-102c-30 26-71 62-90 79l-35 33 35 32c20 18 60 54 90 80l55 47h-370l55-47c30-26 70-62 90-80l35-32-35-33c-20-17-60-53-90-79l-55-47H2790l185-1-55 48"/><path d="M1040 735c-24 29 1 52 50 45 18-2 40-28 40-47 0-18-74-17-90 2zm576-109c-19 19-22 124-4 142 7 7 21 12 33 12 34 0 45-20 45-81 0-58-16-89-45-89-7 0-21 7-29 16zm487 101c-20 7-15 41 6 53 36 18 94-21 75-51-5-9-60-11-81-2zm717 8c-24 29 1 52 50 45 18-2 40-28 40-47 0-18-74-17-90 2"/></g></svg>
