<svg xmlns="http://www.w3.org/2000/svg" preserveAspectRatio="xMidYMid meet" version="1.0" viewBox="0 0 3500 1750"><g fill="#000" stroke="none"><path d="M0 875V1750h3500V0H0v875zm932-302c71 32 133 94 166 166 38 80 38 192 0 272-33 72-94 134-167 168-80 37-192 37-271 0-79-37-125-81-161-154-39-80-48-160-25-237 58-200 272-301 458-215zm461 229 67-67V1010h-30c-30 0-30-1-30-55 0-30-3-55-7-55-4 0-21 14-39 31l-32 31-23-31c-12-17-26-31-31-31-4 0-8 25-8 56v55l-32-3-33-3-3-119c-1-66 0-127 4-135 4-12 21 0 68 51l63 67 66-67zm192-36c8 10 17 27 20 36 9 26 21 22 44-16 22-35 39-46 71-46 32 0 30 15-10 71-22 30-40 58-40 62 0 4 18 35 40 67s40 61 40 64c0 4-17 6-37 6-33 0-41-5-64-41l-27-42-27 42c-23 35-33 41-61 41-19 0-34-4-34-10 0-5 18-35 40-66l39-56-39-59c-22-32-40-62-40-68 0-18 69-6 85 15zm373 9c27 32 28 75 3 106-14 17-32 25-72 29l-54 5-3 48c-2 32-7 47-15 44-13-4-23-227-12-255 4-12 18-13 68-9 49 6 67 12 85 32zm433 90c32 69 59 129 59 135 0 25-23 6-40-35l-19-45h-128l-17 45c-10 25-24 45-32 45-11 0-8-12 10-53 73-161 99-217 103-217 3 0 31 56 64 125zm81-67c53 94 49 93 97 13 23-39 46-69 52-66 10 7 2 25-47 102-24 38-34 65-36 104-4 72-28 79-28 9 0-44-7-64-45-127-25-40-45-78-45-83 0-21 27 3 52 48zm346-41c3 10-14 13-62 13H2690v89l55 3c72 4 71 22 0 26l-56 3 3 47 3 47 63 3c88 4 78 22-13 22H2670V882c0-71 3-132 7-136 12-12 136-2 141 11zm200 19c29 33 28 69-3 100l-26 26 31 47c32 51 36 61 20 61-5 0-26-25-46-55-32-48-41-55-70-55-33 0-33 0-36 52-2 30-8 53-15 56-10 3-13-27-13-126 0-71 3-132 8-136 4-4 34-5 67-2 47 5 65 12 83 32zm-976 91 3 118 63 3c88 4 78 22-13 22H2020V880c0-165 18-175 22-13"/><path d="M688 747c-3 10-6 73-7 141-2 97 0 123 11 127 16 7 248-125 248-140 0-9-209-136-236-143-6-2-13 5-16 15zM1830 830v60h38c50 0 82-23 82-60 0-41-24-60-76-60H1830v60zm472 12-18 43 39 3c21 2 41 2 43-1 6-6-28-87-37-87-5 0-17 19-27 42zm588-17V880h38c46 0 82-24 82-54 0-34-30-56-78-56H2890v55"/></g></svg>
