<svg xmlns="http://www.w3.org/2000/svg" preserveAspectRatio="xMidYMid meet" version="1.0" viewBox="0 0 3500 1750"><g fill="#000" stroke="none"><path d="M0 875V1750h3500V0H0v875zM566 750l43 105 1-108V640h80v461l-32-3c-32-3-34-6-74-110-22-59-43-111-47-114-4-4-7 45-7 109V1100h-80V639l36 3c35 3 36 4 80 108zM940 647c0 5 18 105 40 223s40 218 40 222c0 5-20 8-45 8-43 0-44-1-50-38-10-59-13-62-44-62-27 0-31 4-36 37-11 62-11 63-61 63-43 0-46-2-41-23 3-12 22-112 42-221 20-110 38-203 41-208 6-10 114-11 114-1zm248 40c6 27 16 83 23 125 7 43 15 78 18 78 4 0 17-56 30-125l23-126 52 3 51 3 3 228 2 228-32-3-33-3L1320 950c-3-80-7-140-8-135-1 6-11 62-22 125-30 170-26 160-59 160-33 0-33-1-65-188-8-46-17-86-20-89-3-4-6 57-6 135V1100h-70V877c0-123 3-227 7-230 3-4 28-7 54-7h47l10 47zm385-34c3 7 13 60 22 117 10 58 21 108 25 112 3 4 17-47 30-115l25-122 53-3 52-3 2 190c1 105 2 208 3 228 0 37-1 38-35 38-21 0-36-5-36-13-1-6-3-72-4-145-3-146-4-145-34 33l-21 125-32 3c-18 2-33 0-33-5 0-23-48-275-54-280-3-4-6 60-6 140V1100h-71l2-223c1-122 3-225 6-230 7-13 100-8 106 6zm493 215c44 242 45 236-18 230-27-2-34-8-36-28-7-65-11-71-45-68-30 3-33 6-41 50l-8 48h-44c-29 0-44-4-44-13 0-6 18-108 40-226 22-117 40-215 40-218 0-2 26-3 57-1l57 3 42 223zm279-193c0 29-2 30-47 33l-48 3v108l42 3c40 3 42 5 43 33 0 28-3 30-40 35l-40 5-3 103-3 103-47-3-47-3-3-215c-1-118 0-220 3-228 3-9 28-12 97-10l93 3v30zm148 160 2 190 53 3 52 3v69h-200V639l46 3 45 3 2 190zm247 36v230l-45-3-46-3V872c0-122 1-224 1-227 0-3 20-5 45-5h45v231zm160-176c12 30 25 55 29 55 3 0 13-24 21-53 15-51 16-52 58-55 23-2 42-2 42 0s-18 56-39 120L2972 880l43 107 43 108-40 3c-23 2-45-1-49-5-5-5-20-35-33-68-20-49-26-56-32-40-42 114-39 110-84 113-38 3-42 1-35-15 3-10 24-66 45-125l38-107-39-97c-22-53-39-100-39-105s20-9 44-9c44 0 44 0 66 55"/><path d="M870 827c0 21-3 55-6 75-6 34-4 38 15 38 23 0 25-10 15-98-8-60-24-70-24-15zM1954 860c-9 80-9 80 14 80 22 0 22-2 16-68-10-99-19-103-30-12"/></g></svg>
