<svg xmlns="http://www.w3.org/2000/svg" preserveAspectRatio="xMidYMid meet" version="1.0" viewBox="0 0 3500 1750"><path d="M0 875V1750h3500V0H0v875zm670-150 65 180 3-183L740 540h100v629l-55 6c-31 4-57 6-59 4-2-2-28-76-59-164l-56-160v172c-1 158-3 173-18 173-10 0-35 3-55 6l-38 7V539l52 3 53 3 65 180zM1240 590v50h-190v146l70-4 70-4V890h-140v152l93-3 92-4v100l-140 11c-77 7-143 10-147 7-5-2-8-141-8-309V540h300v50zm390 0v50h-110l-2 242-3 243-52 3-53 3V640h-110V540h330v50zm360 0v49l-92 3-93 3-3 67-3 68H1940v100h-140v240h-110V540h300v50zm172 192 3 243 65 3c109 4 110 5 110 63v51l-137-7c-76-4-141-9-145-12-5-2-8-134-8-294V540h110l2 242zm368 69v311l-22-6c-13-3-35-6-50-6H2430V540h100v311zm236-239c15 40 30 76 34 81 4 4 23-29 42-73l37-80h118l-68 159-68 158 69 177 68 177-56-6c-32-4-62-14-69-22-6-8-24-50-40-94-15-43-30-79-33-79-3 0-22 37-41 82l-35 83-54-4c-30-1-56-4-58-6-1-1 27-71 63-156l66-154-42-110c-23-60-50-131-60-158L2620 540h118l28 72" fill="#000"/></svg>
