<svg xmlns="http://www.w3.org/2000/svg" preserveAspectRatio="xMidYMid meet" version="1.0" viewBox="0 0 3500 1750"><g fill="#000" stroke="none"><path d="M0 875V1750h3500V0H0v875zm1005-310c0 26-4 30-31 33-34 3-49-16-38-50 4-15 13-18 37-16 28 3 32 7 32 33zm1190 0c0 26-3 30-29 30-36 0-56-26-36-50 8-9 24-15 39-13 22 2 26 8 26 33zm295 150V900h-29c-16 0-31-5-33-11-3-9-9-9-25 0-27 14-78 14-104 1-49-27-67-146-29-207 22-37 53-48 111-40l39 5V530h70v185zM502 651c3 9 9 9 25 0 27-14 88-14 114-1 58 32 67 165 14 220-23 24-37 30-70 30-22 0-46-5-53-12-7-7-12-8-13-3 0 6-1 32-2 60l-2 50-37 3-38 3V827c0-95 3-177 7-180 11-11 51-8 55 4zM800 660l11 21 26-21c41-32 63-27 63 14 0 34-1 35-42 38l-43 3-3 92-3 93H740V777c0-68 3-127 7-130C760 633 790 641 800 660zm205 110v125l-32 3-33 3V639l33 3 32 3V770zm123-118c9 9 18 9 37 0 14-7 43-12 63-12 21 0 43 5 50 12 9 9 18 9 37 0 35-16 97-15 121 2 17 13 19 27 19 128v113l-32 3-33 3v-88c0-107-11-129-58-118l-32 7V900h-69l-3-96c-3-109-14-128-62-106-25 11-26 14-26 107V900h-70V777c0-68 3-127 7-130 10-11 38-8 51 5zm566 9c20 16 26 29 26 59 0 51-27 70-97 70-57 0-68 14-36 45 13 13 29 16 70 13 53-5 54-4 51 21-6 51-128 49-178-4-49-52-32-177 29-210 39-21 104-19 135 6zm244 71c16 52 32 86 35 78 3-8 16-49 29-90 22-72 24-75 56-78 23-2 32 1 32 11 0 8-20 66-44 128-41 107-45 114-73 117-16 2-34-3-40-10-10-14-93-228-93-241 0-4 16-7 35-7h34l29 92zm257 38v125l-32 3-33 3V639l33 3 32 3V770zm546-101c35 36 37 64 4 96-20 21-34 25-80 25-59 0-71 13-38 45 13 13 29 16 71 13 40-4 55-1 59 9 17 45-113 65-165 26-63-46-66-151-7-210 28-28 40-33 80-33 38 0 52 5 76 29zm275 5c31 31 34 39 34 96 0 57-3 65-34 96-31 31-40 34-91 34-49 0-60-4-85-28-16-16-32-45-35-65-10-54 3-106 35-139 25-24 36-28 85-28 51 0 60 3 91 34zm-595 351c18 12 4 110-25 170-25 50-61 93-71 84-2-3 8-42 22-88 35-111 32-116-81-116-47 0-86-3-86-6 0-41 190-75 241-44zM1187 1080c188 95 377 140 583 140 144 0 264-20 395-66 55-19 111-36 124-37 46-4 32 23-36 66-295 188-684 192-984 11-105-64-218-164-184-164 2 0 48 22 102 50"/><path d="M2337 708c-36 39-11 142 33 142s50-9 50-80c0-53-4-69-16-74-28-11-50-6-67 12zm-1806-9c-19 12-19 130 0 142 44 28 89-8 89-71s-45-99-89-71zm1050 10c-18 32-13 41 22 41 41 0 60-12 55-36-5-28-63-32-77-5zm1040 0c-19 35-13 42 32 39 37-3 42-6 42-28 0-21-5-26-32-28-23-2-34 2-42 17zm282-11c-32 20-38 105-11 139 16 20 55 15 72-9 44-62-5-165-61-130"/></g></svg>
