<svg xmlns="http://www.w3.org/2000/svg" preserveAspectRatio="xMidYMid meet" version="1.0" viewBox="0 0 3500 1750"><g fill="#000" stroke="none"><path d="M0 875V1750h3500V0H0v875zm2237-483c20 22 21 35 24 485l4 461-24 26-24 26h-934l-24-26-24-26 2-460 1-460 23-24 22-24h934l20 22"/><path d="M1385 536c-9 9-14 21-12 28 6 17 49 36 85 36 22 0 32 5 32 15 0 21-68 20-92-2-17-15-18-15-18 4 0 40 128 40 143-1 8-21-18-39-77-52-51-11-51-11-24-24 22-10 31-10 59 4 39 19 39 19 39 2 0-27-109-35-135-10zm190 9c-30 29-31 45-7 75 12 15 33 24 64 27 40 5 50 2 72-20 33-33 33-60 0-86-38-30-98-28-129 4zm93 1c41 29 23 84-28 84-32 0-50-17-50-46 0-20 32-54 50-54 3 0 16 7 28 16zm86-14c-3 4 0 8 5 8 16 0 14 87-1 93-7 3 5 6 27 6 32 0 36-2 23-10-11-6-18-22-18-40v-31l49 41c27 23 54 41 60 41 7 0 11-20 11-50 0-29 5-50 11-50 5 0 8-4 5-8-5-9-53-8-63 1-3 4 1 7 10 7 11 0 17 8 17 25 0 32-10 32-44-4-27-28-82-46-92-29zm196-5c0 2 16 17 35 34 35 31 45 63 23 72-7 3 7 6 31 6 41 1 43 0 26-13-18-13-18-15 8-50 16-20 35-36 43-36 8 0 13-4 10-8-2-4-17-7-33-6-19 1-27 6-25 16 4 24-23 41-37 24-6-8-10-19-9-26 2-7-12-13-34-14-21-2-38-1-38 1zm-700 485c0 324 0 327 22 348 21 20 33 20 478 20s457 0 478-20c20-19 22-30 22-146 0-139-7-163-62-209-66-55-169-85-378-110-307-36-402-59-486-116-23-15-48-43-57-61-16-31-17-15-17 294zm760-14c0 5-31 76-69 158-71 152-92 177-134 161-16-6-87-135-87-157 0-5 13-10 30-10 21 0 36 9 57 35l28 35 50-103c34-69 58-106 75-114 29-15 50-17 50-5zm-450 167V1320h-80v-310h80v155zm118-78c-2 13-14 19-41 21-32 3-37 0-37-17 0-18 6-21 41-21 33 0 40 3 37 17zm2 138v95h-80v-190h80v95"/></g></svg>
