<svg xmlns="http://www.w3.org/2000/svg" preserveAspectRatio="xMidYMid meet" version="1.0" viewBox="0 0 3500 1750"><path d="M0 875V1750h3500V0H0v875zM1511 380c20 6 43 18 52 28 14 16 14 19-2 41-18 24-19 24-54 8-37-18-67-14-67 8 0 17 17 28 73 49 54 20 77 47 77 91 0 103-158 142-232 58-17-19-17-20 6-42l23-22 37 22c31 18 41 20 62 10 36-16 26-32-37-62-63-31-87-54-95-95-7-37 24-80 69-93 43-12 47-12 88-1zM1680 490c0 97 2 112 20 130 25 25 52 26 73 2 12-14 17-43 19-127l3-110h80l3 101c3 124-10 169-58 202-29 20-44 23-93 20-49-4-63-9-90-36l-32-32-3-130-4-130h82v110zm367-18 58 92 3-92 3-92h79l-2 162-3 163h-40c-40 0-40 0-95-92-30-51-58-92-62-93-5 0-8 43-8 96v95l-37-3-38-3-3-150c-1-82 0-155 2-162 3-8 22-13 45-13 39 0 40 1 98 92zm-764 439 107 171 2-168 3-169 151-3 151-3 49 73c60 90 59 88 39 88-21 0-95 41-95 52 0 24-25 0-71-70-28-42-56-81-60-87-5-5-9 102-9 245v255l52-78 51-78 27 30c15 16 41 36 58 45l31 16-42 60-41 60-151-2-150-3-105-177c-58-97-108-177-112-177-5-1-8 80-8 179v180h-150V740h166l107 171zM2535 810v65l-82 3-83 3V1350h-150V881l-106-3-107-3-25 35c-14 19-29 39-33 44-4 5-22-3-40-18-17-15-45-30-60-33-16-3-29-7-29-10 0-2 23-38 50-79l51-74 307 2 307 3V810zm-694 212c32 18 58 36 56 39-3 9-114 99-121 99-3 0-6-38-6-85s3-85 6-85 32 15 65 32zm189 214c36 53 67 101 68 105 2 5-34 9-80 9h-84l-42-60c-23-32-42-61-42-63 0-3 11-8 24-11 13-3 37-21 52-40 16-19 31-35 34-35 3 0 34 43 70 95" fill="#000"/></svg>
