<svg xmlns="http://www.w3.org/2000/svg" preserveAspectRatio="xMidYMid meet" version="1.0" viewBox="0 0 3500 1750"><g fill="#000" stroke="none"><path d="M0 875V1750h3500V0H0v875zm2652-314c4 22 0 32-11 36-43 12-80 39-118 86l-42 52 27 14c72 37 101 94 102 197 0 71 1 72 39 107 92 83 190 47 191-69 0-60-37-122-98-163-50-34-51-35-36-63 8-15 18-28 22-28 5 0 29 13 54 29 83 53 128 133 128 228 0 110-58 173-157 173-61 0-109-17-137-49-23-26-33-26-41-4-3 10-12 26-19 36-13 17-16 17-45 2-17-8-31-17-31-19 0-2 12-25 26-50 34-60 43-155 21-208-23-56-68-80-141-75-53 3-62 7-92 39-19 21-36 53-40 75-9 50 10 138 41 185l25 38-36 15c-20 8-38 15-39 15-1 0-15-28-31-63-23-51-28-76-28-142-1-91 22-148 73-186l29-21-19-32c-25-41-24-42 12-55 42-14 38-15 51 19 13 38 41 55 68 40 11-6 45-42 76-81 37-47 70-77 98-90 59-27 73-24 78 12zM1110 585c61 32 76 119 28 167l-20 20 30 31c114 118 60 295-105 343-73 21-248 16-308-10-78-33-134-112-135-186 0-45 37-118 73-144 21-16 44-21 89-21 53 0 62 3 84 28 31 36 33 103 4 140-26 33-81 51-136 44-38-4-42-2-35 12 32 58 102 85 226 85 85 1 107-3 147-23 45-21 88-66 88-89 0-6-13-4-31 5-74 37-169-16-169-93 0-29 8-44 36-70l35-34h-45c-44 0-46-1-46-29s0-28 77-33c59-4 79-9 90-24 17-24 17-30-7-54-19-19-33-20-213-20H673v-60h204c163 0 210 3 233 15zm403 171c34 34 43 81 24 127-22 51-65 71-139 64-63-6-70 1-47 46 38 74 128 115 228 103 178-21 231-191 89-285-36-23-36-23-19-52 9-16 19-29 24-29 22 0 92 59 115 99 23 38 27 58 27 118 0 62 3 75 24 97 31 33 103 60 135 52 14-3 35-16 46-28 27-29 28-119 1-168-17-32-83-92-112-102-17-6 8-68 26-68 21 0 97 62 131 108 81 105 57 275-43 313-38 14-121 11-156-7-18-9-44-27-58-41l-27-25-40 30c-59 42-117 55-219 50-138-7-218-63-244-171-34-141 36-257 156-257 43 0 57 5 78 26"/><path d="M695 865c-28 28-33 60-9 69 24 9 73 7 95-4 22-12 26-59 7-78-20-20-67-14-93 13zm330-9c-44 44 11 100 73 75 41-17 47-39 21-68-26-27-70-30-94-7zm341-36c-31 38-32 46-7 60 60 32 134-5 115-58-7-22-16-28-45-30-30-3-41 2-63 28"/></g></svg>
