<svg xmlns="http://www.w3.org/2000/svg" preserveAspectRatio="xMidYMid meet" version="1.0" viewBox="0 0 3500 1750"><g fill="#000" stroke="none"><path d="M0 875V1750h3500V0H0v875zm1212-249C1320 637 1340 679 1340 888c-1 217-14 237-175 253-106 11-425 6-487-7-73-16-94-81-91-279 3-202 22-224 204-235 122-8 308-5 421 6zM2590 722c0 78 1 80 18 65 23-21 62-22 87-3 46 34 39 286-9 318-20 13-69 8-88-9-17-15-18-15-18 1 0 13-7 17-32 14l-33-3-3-233L2510 640h80v82zm-1082 20c12 51 23 102 25 113 2 11 9-7 16-40 32-153 35-160 65-163 16-2 32 0 36 5 4 4-12 78-36 163-36 124-44 168-42 220l3 65-38 3-37 3v-73c0-54-10-110-40-218-22-80-40-151-40-158 0-7 13-12 34-12h34l20 92zm782-57c0 33-2 35-35 35H2220v390h-80V720h-35c-33 0-35-2-35-35V650h220v35zm-497 96c45 21 66 112 52 224-9 78-36 105-103 105-39 0-53-5-72-25-20-22-24-38-28-113-5-109 9-166 46-186 33-18 72-20 105-5zm1128 8c20 16 25 31 29 96 3 42 3 78 1 81-2 2-31 4-63 4h-59l3 42c2 35 7 44 24 46 16 2 23-4 28-22 5-21 13-26 36-26 26 0 30 4 30 28 0 53-62 88-125 71-55-16-67-50-63-181 3-106 4-111 31-134 35-30 94-32 128-5zm-959 128c3 130 4 138 23 138s20-8 23-138l3-137h79v330h-30c-20 0-30-5-30-15 0-19-9-19-32 2-25 22-77 21-94-2-10-14-14-58-14-167V780h69l3 137zm378-10c0 137 7 165 37 147 16-10 18-29 21-143l3-131h69v330h-30c-20 0-30-5-30-15 0-19-9-19-31 1-26 24-69 21-91-6-15-19-18-42-18-166V780h70v127"/><path d="M890 879v112l28-15c15-8 58-32 95-54l68-40-63-37c-35-21-78-47-95-57l-33-20v111zm1712-47c-8 8-12 48-12 115 0 85 3 105 16 110 8 3 21 0 27-6 16-16 22-168 8-204-12-30-21-33-39-15zm-876 4c-3 9-6 60-6 115 0 82 3 101 16 106 9 3 20 0 25-8 14-22 11-203-3-217-16-16-25-15-32 4zm1110-1c-3 9-6 32-6 51 0 30 3 34 26 34 24 0 25-2 22-47-2-35-8-49-19-51-9-2-19 4-23 13"/></g></svg>
