<svg xmlns="http://www.w3.org/2000/svg" preserveAspectRatio="xMidYMid meet" version="1.0" viewBox="0 0 3500 1750"><g fill="#000" stroke="none"><path d="M0 875V1750h3500V0H0v875zM1765 370c0 10-12 16-35 18-35 2-160 32-160 37 0 2 3 10 6 18 5 14 10 14 47 0 28-11 75-17 142-17 84 0 110 4 160 24 36 15 60 31 60 40 0 18-13 17-90-11-91-32-216-25-305 18-86 42-119 68-103 84 9 9 19 6 42-10 52-37 134-70 193-77 73-8 130 2 126 22-2 11 12 22 39 32 93 37 189 136 209 214l6 28H1980v170h122l-7 27c-10 44-64 121-111 159-62 51-130 74-218 74-55 0-75 4-79 14-8 19 14 26 78 26 69 0 160-29 219-70 36-24 51-29 59-21 16 16-17 42-100 82-107 52-234 56-338 10-37-16-50-18-56-9-11 18-4 25 59 49 72 29 232 32 299 6 38-14 42-14 47 0 4 9 5 17 4 18-14 11-84 28-133 34-44 4-60 10-60 21 0 21-28 24-99 10-182-35-337-171-398-349-30-87-32-239-4-321 56-166 183-294 341-343 94-30 160-33 160-7zM2280 799c0 6-17 11-37 13-27 2-39 8-41 20-3 14 3 18 24 18 48 0 81 50 56 86-22 34-87 39-112 9-16-20 4-27 35-13 21 9 29 9 42-4 24-25 9-46-34-50-41-3-50-19-39-64 6-21 12-24 56-24 28 0 50 4 50 9zM2110 840c0 17-7 20-45 20s-45-3-45-20 7-20 45-20 45 3 45 20zm0 70c0 17-7 20-45 20s-45-3-45-20 7-20 45-20 45 3 45 20"/><path d="M1620 805c0 11 12 15 46 15h46l-51 59c-28 32-51 64-51 70 0 7 27 11 75 11 59 0 75-3 75-14 0-11-14-16-47-18l-46-3 46-54c26-30 47-61 47-68 0-9-19-13-70-13-56 0-70 3-70 15zm180 70V960h70c56 0 70-3 70-15 0-11-12-15-50-15-43 0-50-3-50-20s7-20 50-20c38 0 50-4 50-15s-12-15-50-15c-43 0-50-3-50-20s7-20 50-20c38 0 50-4 50-15 0-12-14-15-70-15h-70v85"/></g></svg>
